<svg width="107" height="39" viewBox="0 0 107 39" fill="none" xmlns="http://www.w3.org/2000/svg">
<path d="M54.6347 3.86535L54.5468 3.7905C54.1357 3.44013 53.531 3.44013 53.1199 3.7905L51.8484 4.87404C51.3839 5.26986 50.8064 5.50907 50.1981 5.55761L48.5329 5.6905C47.9944 5.73347 47.5668 6.16105 47.5239 6.69951L47.391 8.36475C47.3424 8.97308 47.1032 9.55058 46.7074 10.0151L45.6239 11.2865C45.2735 11.6977 45.2735 12.3023 45.6239 12.7135L46.7074 13.9849C47.1032 14.4494 47.3424 15.0269 47.391 15.6352L47.5239 17.3005C47.5668 17.8389 47.9944 18.2665 48.5329 18.3095L50.1981 18.4424C50.8064 18.4909 51.3839 18.7301 51.8484 19.126L53.1199 20.2095C53.531 20.5599 54.1357 20.5599 54.5468 20.2095L55.8183 19.126C56.2828 18.7301 56.8603 18.4909 57.4686 18.4424L59.1338 18.3095C59.6723 18.2665 60.0999 17.8389 60.1429 17.3005L60.2757 15.6352C60.3243 15.0269 60.5635 14.4494 60.9593 13.9849L62.0429 12.7135C62.3932 12.3023 62.3932 11.6977 62.0429 11.2865L61.968 11.1987L63.2448 9.92185L63.4129 10.119C64.3366 11.2029 64.3366 12.7971 63.4129 13.881L62.3293 15.1525C62.1792 15.3286 62.0885 15.5477 62.07 15.7784L61.9372 17.4437C61.8239 18.8633 60.6966 19.9905 59.277 20.1038L57.6118 20.2367C57.381 20.2551 57.162 20.3458 56.9858 20.496L55.7143 21.5795C54.6305 22.5032 53.0363 22.5032 51.9524 21.5795L50.6809 20.496C50.5047 20.3458 50.2857 20.2551 50.0549 20.2367L48.3897 20.1038C46.9701 19.9905 45.8428 18.8633 45.7296 17.4437L45.5967 15.7784C45.5783 15.5477 45.4875 15.3286 45.3374 15.1525L44.2538 13.881C43.3302 12.7971 43.3302 11.2029 44.2538 10.119L45.3374 8.84754C45.4875 8.67136 45.5783 8.45231 45.5967 8.22157L45.7296 6.55633C45.8428 5.13675 46.9701 4.00949 48.3897 3.89621L50.0549 3.76332C50.2857 3.7449 50.5047 3.65417 50.6809 3.50403L51.9524 2.42049C53.0363 1.4968 54.6304 1.4968 55.7143 2.42049L55.9115 2.58852L54.6347 3.86535Z" fill="black" fill-opacity="0.7"/>
<path fill-rule="evenodd" clip-rule="evenodd" d="M58.197 3.03027C59.4689 1.75832 61.5311 1.75832 62.8031 3.03027C64.075 4.30222 64.075 6.36445 62.8031 7.63639L56.5395 13.9H51.9334V9.29387L58.197 3.03027ZM61.5303 4.30306C60.9613 3.73406 60.0388 3.73406 59.4698 4.30306L53.7334 10.0395V12.1H55.7939L61.5303 6.3636C62.0993 5.7946 62.0993 4.87207 61.5303 4.30306Z" fill="black" fill-opacity="0.7"/>
<path d="M37.6196 31.0462H36.6253C36.5779 30.8023 36.4927 30.5869 36.3696 30.3999C36.2488 30.2128 36.0997 30.0554 35.9221 29.9276C35.7469 29.7997 35.5516 29.7038 35.3362 29.6399C35.1208 29.5736 34.8959 29.5405 34.6615 29.5405C34.2306 29.5405 33.8435 29.6494 33.5003 29.8672C33.157 30.0826 32.8847 30.401 32.6835 30.8224C32.4846 31.2415 32.3852 31.7552 32.3852 32.3636C32.3852 32.9744 32.4846 33.4905 32.6835 33.9119C32.8847 34.331 33.157 34.6482 33.5003 34.8636C33.8435 35.0791 34.2294 35.1868 34.6579 35.1868C34.8947 35.1868 35.1196 35.1548 35.3326 35.0909C35.5481 35.0246 35.7434 34.9287 35.9186 34.8033C36.0961 34.6754 36.2453 34.5192 36.366 34.3345C36.4891 34.1475 36.5755 33.9332 36.6253 33.6918H37.6196C37.558 34.0587 37.4408 34.3902 37.268 34.6861C37.0952 34.982 36.8774 35.2353 36.6146 35.446C36.3542 35.6567 36.0583 35.8189 35.7268 35.9325C35.3954 36.0438 35.0379 36.0994 34.6544 36.0994C34.0294 36.0994 33.473 35.9491 32.9853 35.6484C32.4977 35.3454 32.1141 34.9157 31.8348 34.3594C31.5554 33.8007 31.4157 33.1354 31.4157 32.3636C31.4157 31.5919 31.5554 30.9266 31.8348 30.3679C32.1165 29.8092 32.5012 29.3795 32.9889 29.0788C33.4766 28.7782 34.0317 28.6278 34.6544 28.6278C35.0308 28.6278 35.3835 28.6823 35.7126 28.7912C36.0417 28.9001 36.3376 29.0587 36.6004 29.267C36.8656 29.4754 37.0857 29.7287 37.2609 30.027C37.4361 30.3253 37.5557 30.665 37.6196 31.0462ZM41.145 36.1136C40.6431 36.1136 40.2039 35.9964 39.8275 35.7621C39.4511 35.5253 39.1587 35.1963 38.9504 34.7749C38.742 34.3535 38.6379 33.8622 38.6379 33.3011C38.6379 32.733 38.742 32.237 38.9504 31.8132C39.1587 31.3894 39.4511 31.0604 39.8275 30.826C40.2039 30.5916 40.6431 30.4744 41.145 30.4744C41.6469 30.4744 42.086 30.5916 42.4624 30.826C42.8389 31.0604 43.1312 31.3894 43.3396 31.8132C43.5479 32.237 43.6521 32.733 43.6521 33.3011C43.6521 33.8622 43.5479 34.3535 43.3396 34.7749C43.1312 35.1963 42.8389 35.5253 42.4624 35.7621C42.086 35.9964 41.6469 36.1136 41.145 36.1136ZM41.145 35.2898C41.5001 35.2898 41.7913 35.1986 42.0186 35.0163C42.2482 34.8317 42.4186 34.589 42.5299 34.2884C42.6412 33.9853 42.6968 33.6551 42.6968 33.2976C42.6968 32.9425 42.6412 32.6134 42.5299 32.3104C42.4186 32.005 42.2482 31.7599 42.0186 31.5753C41.7913 31.3883 41.5001 31.2947 41.145 31.2947C40.7922 31.2947 40.501 31.3883 40.2714 31.5753C40.0418 31.7599 39.8713 32.005 39.76 32.3104C39.6488 32.6134 39.5931 32.9425 39.5931 33.2976C39.5931 33.6551 39.6488 33.9853 39.76 34.2884C39.8713 34.589 40.0418 34.8317 40.2714 35.0163C40.501 35.1986 40.7922 35.2898 41.145 35.2898ZM44.8825 36V30.5455H45.7987V31.4155H45.8698C45.9834 31.1196 46.1669 30.8887 46.4202 30.723C46.6759 30.5573 46.9824 30.4744 47.3399 30.4744C47.7021 30.4744 48.0052 30.5573 48.249 30.723C48.4952 30.8887 48.6811 31.1196 48.8065 31.4155H48.8634C48.9983 31.129 49.2066 30.9006 49.4884 30.7301C49.7701 30.5597 50.1074 30.4744 50.5004 30.4744C50.9905 30.4744 51.3906 30.6283 51.7007 30.9361C52.0132 31.2438 52.1695 31.7138 52.1695 32.3459V36H51.2213V32.3956C51.2213 32.0097 51.116 31.7327 50.9053 31.5646C50.6946 31.3942 50.4448 31.3089 50.156 31.3089C49.7914 31.3089 49.5085 31.4202 49.3073 31.6428C49.106 31.8629 49.0054 32.1435 49.0054 32.4844V36H48.0502V32.321C48.0502 32.018 47.9531 31.7741 47.759 31.5895C47.5672 31.4025 47.3186 31.3089 47.0132 31.3089C46.8025 31.3089 46.6072 31.3646 46.4273 31.4759C46.2497 31.5871 46.1065 31.741 45.9976 31.9375C45.8887 32.1316 45.8342 32.3565 45.8342 32.6122V36H44.8825ZM53.6423 38.0455V30.5455H54.5656V31.419H54.6615C54.723 31.3172 54.8106 31.1918 54.9243 31.0426C55.0379 30.8935 55.1977 30.7621 55.4037 30.6484C55.6096 30.5324 55.8866 30.4744 56.2346 30.4744C56.6821 30.4744 57.0798 30.5881 57.4278 30.8153C57.7758 31.0402 58.0481 31.3634 58.2446 31.7848C58.4434 32.2038 58.5429 32.7045 58.5429 33.2869C58.5429 33.8693 58.4446 34.3712 58.2481 34.7926C58.0516 35.214 57.7806 35.5395 57.4349 35.7692C57.0893 35.9964 56.6927 36.1101 56.2453 36.1101C55.9044 36.1101 55.6286 36.0533 55.4179 35.9396C55.2095 35.826 55.0462 35.6946 54.9278 35.5455C54.8118 35.3939 54.723 35.2637 54.6615 35.1548H54.594V38.0455H53.6423ZM54.5763 33.2727C54.5763 33.6705 54.6343 34.0208 54.7503 34.3239C54.8663 34.6245 55.0344 34.8601 55.2545 35.0305C55.4771 35.1986 55.7493 35.2827 56.0713 35.2827C56.4027 35.2827 56.6809 35.1939 56.9058 35.0163C57.1307 34.8388 57.3 34.5985 57.4136 34.2955C57.5296 33.9901 57.5876 33.6491 57.5876 33.2727C57.5876 32.901 57.5308 32.5672 57.4172 32.2713C57.3059 31.973 57.1378 31.7375 56.9129 31.5646C56.688 31.3894 56.4075 31.3018 56.0713 31.3018C55.7446 31.3018 55.47 31.3847 55.2474 31.5504C55.0273 31.7138 54.8603 31.9434 54.7467 32.2393C54.6331 32.5353 54.5763 32.8797 54.5763 33.2727ZM61.3731 36.1243C61.0275 36.1243 60.7138 36.0592 60.4321 35.929C60.1527 35.7988 59.9302 35.6106 59.7645 35.3643C59.6011 35.1158 59.5194 34.8127 59.5194 34.4553C59.5194 34.1451 59.5798 33.8918 59.7005 33.6953C59.8237 33.4964 59.987 33.3402 60.1906 33.2266C60.3942 33.1129 60.6203 33.0277 60.8689 32.9709C61.1174 32.9141 61.3696 32.8703 61.6253 32.8395C61.9543 32.7969 62.2207 32.7637 62.4243 32.7401C62.6302 32.7164 62.7806 32.6773 62.8753 32.6229C62.97 32.5684 63.0173 32.4749 63.0173 32.3423V32.3139C63.0173 31.9848 62.9262 31.7292 62.7439 31.5469C62.5616 31.3646 62.2881 31.2734 61.9236 31.2734C61.5448 31.2734 61.2477 31.3563 61.0322 31.522C60.8168 31.6877 60.6653 31.8688 60.5777 32.0653L59.6828 31.8097C59.813 31.4782 59.9941 31.2154 60.2261 31.0213C60.4605 30.8248 60.7221 30.6851 61.0109 30.6023C61.3021 30.517 61.5992 30.4744 61.9023 30.4744C62.0987 30.4744 62.3154 30.4981 62.5521 30.5455C62.7889 30.5904 63.0138 30.6792 63.2268 30.8118C63.4423 30.942 63.6198 31.1349 63.7595 31.3906C63.8992 31.6439 63.969 31.9777 63.969 32.392V36H63.0315V35.2578H62.9889C62.9273 35.3857 62.8291 35.517 62.6942 35.652C62.5592 35.7846 62.3828 35.897 62.165 35.9893C61.9472 36.0793 61.6833 36.1243 61.3731 36.1243ZM61.5507 35.3217C61.8656 35.3217 62.1319 35.2602 62.3497 35.1371C62.5675 35.014 62.7332 34.8542 62.8469 34.6577C62.9629 34.4612 63.0209 34.2517 63.0209 34.0291V33.294C62.983 33.3343 62.9072 33.371 62.7936 33.4041C62.6799 33.4373 62.5497 33.4657 62.403 33.4893C62.2585 33.513 62.1165 33.5343 61.9768 33.5533C61.8395 33.5698 61.7259 33.584 61.6359 33.5959C61.4252 33.6243 61.2299 33.6693 61.05 33.7308C60.8724 33.7924 60.7292 33.8835 60.6203 34.0043C60.5138 34.1226 60.4605 34.2824 60.4605 34.4837C60.4605 34.7607 60.5635 34.9702 60.7694 35.1122C60.9754 35.2519 61.2358 35.3217 61.5507 35.3217ZM66.3909 32.7401V36H65.4392V30.5455H66.3554V31.4155H66.4264C66.5519 31.1314 66.7472 30.9041 67.0123 30.7337C67.2775 30.5608 67.6148 30.4744 68.0244 30.4744C68.3961 30.4744 68.7204 30.5514 68.9974 30.7053C69.2744 30.8568 69.4898 31.0852 69.6437 31.3906C69.8 31.696 69.8781 32.0772 69.8781 32.5341V36H68.9264V32.6264C68.9264 32.2121 68.8187 31.8902 68.6032 31.6605C68.3902 31.4285 68.0966 31.3125 67.7226 31.3125C67.4669 31.3125 67.2384 31.3681 67.0372 31.4794C66.836 31.5907 66.6773 31.7528 66.5613 31.9659C66.4477 32.179 66.3909 32.437 66.3909 32.7401ZM71.7593 38.0455C71.6078 38.0455 71.4717 38.0336 71.3509 38.0099C71.2302 37.9863 71.1438 37.9614 71.0917 37.9354L71.3261 37.1328C71.5249 37.1849 71.7013 37.205 71.8552 37.1932C72.0091 37.1837 72.1452 37.121 72.2636 37.005C72.3843 36.889 72.492 36.7019 72.5867 36.4439L72.7323 36.0497L70.7259 30.5455H71.7487L73.1904 34.8352H73.2472L74.6926 30.5455H75.7188L73.4355 36.7599C73.3313 37.044 73.1999 37.282 73.0413 37.4737C72.885 37.6655 72.7004 37.8087 72.4873 37.9034C72.2742 37.9981 72.0316 38.0455 71.7593 38.0455Z" fill="black" fill-opacity="0.7"/>
</svg>
