<svg width="107" height="38" viewBox="0 0 107 38" fill="none" xmlns="http://www.w3.org/2000/svg">
<path d="M54.3013 3.86535L54.2135 3.7905C53.8024 3.44013 53.1977 3.44013 52.7865 3.7905L51.5151 4.87404C51.0506 5.26986 50.4731 5.50907 49.8648 5.55761L48.1995 5.6905C47.6611 5.73347 47.2335 6.16105 47.1905 6.69951L47.0576 8.36475C47.0091 8.97308 46.7699 9.55058 46.374 10.0151L45.2905 11.2865C44.9401 11.6977 44.9401 12.3023 45.2905 12.7135L46.374 13.9849C46.7699 14.4494 47.0091 15.0269 47.0576 15.6352L47.1905 17.3005C47.2335 17.8389 47.6611 18.2665 48.1995 18.3095L49.8648 18.4424C50.4731 18.4909 51.0506 18.7301 51.5151 19.126L52.7865 20.2095C53.1977 20.5599 53.8024 20.5599 54.2135 20.2095L55.485 19.126C55.9494 18.7301 56.5269 18.4909 57.1353 18.4424L58.8005 18.3095C59.339 18.2665 59.7665 17.8389 59.8095 17.3005L59.9424 15.6352C59.9909 15.0269 60.2302 14.4494 60.626 13.9849L61.7095 12.7135C62.0599 12.3023 62.0599 11.6977 61.7095 11.2865L61.6347 11.1987L62.9115 9.92185L63.0795 10.119C64.0032 11.2029 64.0032 12.7971 63.0795 13.881L61.996 15.1525C61.8458 15.3286 61.7551 15.5477 61.7367 15.7784L61.6038 17.4437C61.4905 18.8633 60.3633 19.9905 58.9437 20.1038L57.2784 20.2367C57.0477 20.2551 56.8287 20.3458 56.6525 20.496L55.381 21.5795C54.2971 22.5032 52.7029 22.5032 51.619 21.5795L50.3476 20.496C50.1714 20.3458 49.9523 20.2551 49.7216 20.2367L48.0563 20.1038C46.6368 19.9905 45.5095 18.8633 45.3962 17.4437L45.2633 15.7784C45.2449 15.5477 45.1542 15.3286 45.004 15.1525L43.9205 13.881C42.9968 12.7971 42.9968 11.2029 43.9205 10.119L45.004 8.84754C45.1542 8.67136 45.2449 8.45231 45.2633 8.22157L45.3962 6.55633C45.5095 5.13675 46.6368 4.00949 48.0563 3.89621L49.7216 3.76332C49.9523 3.7449 50.1714 3.65417 50.3476 3.50403L51.619 2.42049C52.7029 1.4968 54.2971 1.4968 55.381 2.42049L55.5782 2.58852L54.3013 3.86535Z" fill="black" fill-opacity="0.7"/>
<path fill-rule="evenodd" clip-rule="evenodd" d="M57.8636 3.03027C59.1356 1.75832 61.1978 1.75832 62.4697 3.03027C63.7417 4.30222 63.7417 6.36445 62.4697 7.63639L56.2061 13.9H51.6V9.29387L57.8636 3.03027ZM61.197 4.30306C60.628 3.73406 59.7054 3.73406 59.1364 4.30306L53.4 10.0395V12.1H55.4606L61.197 6.3636C61.766 5.7946 61.766 4.87207 61.197 4.30306Z" fill="black" fill-opacity="0.7"/>
<path d="M34.2862 31.0462H33.2919C33.2446 30.8023 33.1593 30.5869 33.0362 30.3999C32.9155 30.2128 32.7664 30.0554 32.5888 29.9276C32.4136 29.7997 32.2183 29.7038 32.0029 29.6399C31.7874 29.5736 31.5625 29.5405 31.3281 29.5405C30.8973 29.5405 30.5102 29.6494 30.1669 29.8672C29.8236 30.0826 29.5514 30.401 29.3502 30.8224C29.1513 31.2415 29.0519 31.7552 29.0519 32.3636C29.0519 32.9744 29.1513 33.4905 29.3502 33.9119C29.5514 34.331 29.8236 34.6482 30.1669 34.8636C30.5102 35.0791 30.8961 35.1868 31.3246 35.1868C31.5613 35.1868 31.7862 35.1548 31.9993 35.0909C32.2147 35.0246 32.4101 34.9287 32.5852 34.8033C32.7628 34.6754 32.9119 34.5192 33.0327 34.3345C33.1558 34.1475 33.2422 33.9332 33.2919 33.6918H34.2862C34.2247 34.0587 34.1075 34.3902 33.9347 34.6861C33.7619 34.982 33.544 35.2353 33.2813 35.446C33.0208 35.6567 32.7249 35.8189 32.3935 35.9325C32.062 36.0438 31.7046 36.0994 31.321 36.0994C30.696 36.0994 30.1397 35.9491 29.652 35.6484C29.1643 35.3454 28.7808 34.9157 28.5014 34.3594C28.2221 33.8007 28.0824 33.1354 28.0824 32.3636C28.0824 31.5919 28.2221 30.9266 28.5014 30.3679C28.7832 29.8092 29.1679 29.3795 29.6556 29.0788C30.1432 28.7782 30.6984 28.6278 31.321 28.6278C31.6975 28.6278 32.0502 28.6823 32.3793 28.7912C32.7083 28.9001 33.0043 29.0587 33.2671 29.267C33.5322 29.4754 33.7524 29.7287 33.9276 30.027C34.1028 30.3253 34.2223 30.665 34.2862 31.0462ZM39.0013 33.7557V30.5455H39.953V36H39.0119V35.0661H38.9551C38.8273 35.3501 38.6272 35.5893 38.355 35.7834C38.0827 35.9751 37.7406 36.071 37.3287 36.071C36.9854 36.071 36.68 35.9953 36.4125 35.8438C36.145 35.6899 35.9343 35.4614 35.7804 35.1584C35.6289 34.853 35.5531 34.4706 35.5531 34.0114V30.5455H36.5048V33.919C36.5048 34.3049 36.6125 34.6127 36.828 34.8423C37.0434 35.0696 37.3192 35.1832 37.6554 35.1832C37.8613 35.1832 38.0673 35.1323 38.2733 35.0305C38.4792 34.9264 38.6521 34.7689 38.7917 34.5582C38.9314 34.3475 39.0013 34.08 39.0013 33.7557ZM45.4093 31.8239L44.5499 32.0156C44.5073 31.8902 44.441 31.7706 44.351 31.657C44.2635 31.541 44.1439 31.4451 43.9924 31.3693C43.8409 31.2936 43.6491 31.2557 43.4171 31.2557C43.0999 31.2557 42.8347 31.3279 42.6216 31.4723C42.4109 31.6167 42.3056 31.8002 42.3056 32.0227C42.3056 32.2169 42.3778 32.3719 42.5222 32.4879C42.6666 32.6039 42.8939 32.6998 43.204 32.7756L44.0421 32.9744C44.5369 33.0904 44.905 33.2704 45.1465 33.5142C45.3903 33.7557 45.5123 34.0682 45.5123 34.4517C45.5123 34.7713 45.4199 35.0566 45.2353 35.3075C45.053 35.5561 44.7985 35.7526 44.4718 35.897C44.1451 36.0414 43.7651 36.1136 43.3319 36.1136C42.7471 36.1136 42.2677 35.9882 41.8937 35.7372C41.5196 35.4839 41.2852 35.1205 41.1905 34.647L42.1032 34.4695C42.1742 34.7512 42.3115 34.9631 42.5151 35.1051C42.7211 35.2448 42.9898 35.3146 43.3212 35.3146C43.6905 35.3146 43.9841 35.2365 44.2019 35.0803C44.4221 34.924 44.5333 34.7346 44.5357 34.5121C44.5333 34.3321 44.467 34.1818 44.3368 34.0611C44.209 33.938 44.0113 33.8456 43.7438 33.7841L42.8276 33.5746C42.3233 33.4586 41.9517 33.2751 41.7126 33.0241C41.4758 32.7708 41.3574 32.4536 41.3574 32.0724C41.3574 31.7576 41.445 31.4806 41.6202 31.2415C41.7978 31 42.0416 30.8118 42.3518 30.6768C42.6619 30.5419 43.0158 30.4744 43.4135 30.4744C43.977 30.4744 44.4209 30.5975 44.7452 30.8438C45.0696 31.09 45.2909 31.4167 45.4093 31.8239ZM49.1859 30.5455V31.3267H46.2846V30.5455H49.1859ZM47.0943 29.2386H48.046V34.4197C48.046 34.6399 48.078 34.8056 48.1419 34.9169C48.2082 35.0258 48.2934 35.0992 48.3976 35.1371C48.5017 35.175 48.6142 35.1939 48.7349 35.1939C48.8225 35.1939 48.8971 35.1892 48.9586 35.1797C49.0202 35.1679 49.0687 35.1584 49.1042 35.1513L49.2853 35.9645C49.2262 35.9858 49.1421 36.0083 49.0332 36.032C48.9267 36.058 48.7917 36.071 48.6284 36.071C48.3703 36.0734 48.1241 36.0237 47.8898 35.9219C47.6554 35.8177 47.4636 35.6591 47.3145 35.446C47.1677 35.233 47.0943 34.9643 47.0943 34.6399V29.2386ZM52.6065 36.1136C52.1047 36.1136 51.6655 35.9964 51.2891 35.7621C50.9127 35.5253 50.6203 35.1963 50.4119 34.7749C50.2036 34.3535 50.0994 33.8622 50.0994 33.3011C50.0994 32.733 50.2036 32.237 50.4119 31.8132C50.6203 31.3894 50.9127 31.0604 51.2891 30.826C51.6655 30.5916 52.1047 30.4744 52.6065 30.4744C53.1084 30.4744 53.5476 30.5916 53.924 30.826C54.3004 31.0604 54.5928 31.3894 54.8012 31.8132C55.0095 32.237 55.1137 32.733 55.1137 33.3011C55.1137 33.8622 55.0095 34.3535 54.8012 34.7749C54.5928 35.1963 54.3004 35.5253 53.924 35.7621C53.5476 35.9964 53.1084 36.1136 52.6065 36.1136ZM52.6065 35.2898C52.9617 35.2898 53.2529 35.1986 53.4801 35.0163C53.7098 34.8317 53.8802 34.589 53.9915 34.2884C54.1028 33.9853 54.1584 33.6551 54.1584 33.2976C54.1584 32.9425 54.1028 32.6134 53.9915 32.3104C53.8802 32.005 53.7098 31.7599 53.4801 31.5753C53.2529 31.3883 52.9617 31.2947 52.6065 31.2947C52.2538 31.2947 51.9626 31.3883 51.733 31.5753C51.5033 31.7599 51.3329 32.005 51.2216 32.3104C51.1103 32.6134 51.0547 32.9425 51.0547 33.2976C51.0547 33.6551 51.1103 33.9853 51.2216 34.2884C51.3329 34.589 51.5033 34.8317 51.733 35.0163C51.9626 35.1986 52.2538 35.2898 52.6065 35.2898ZM56.3441 36V30.5455H57.2603V31.4155H57.3313C57.445 31.1196 57.6284 30.8887 57.8818 30.723C58.1374 30.5573 58.444 30.4744 58.8015 30.4744C59.1637 30.4744 59.4668 30.5573 59.7106 30.723C59.9568 30.8887 60.1427 31.1196 60.2681 31.4155H60.3249C60.4599 31.129 60.6682 30.9006 60.9499 30.7301C61.2317 30.5597 61.569 30.4744 61.962 30.4744C62.4521 30.4744 62.8522 30.6283 63.1623 30.9361C63.4748 31.2438 63.6311 31.7138 63.6311 32.3459V36H62.6829V32.3956C62.6829 32.0097 62.5775 31.7327 62.3668 31.5646C62.1561 31.3942 61.9064 31.3089 61.6176 31.3089C61.253 31.3089 60.9701 31.4202 60.7688 31.6428C60.5676 31.8629 60.467 32.1435 60.467 32.4844V36H59.5117V32.321C59.5117 32.018 59.4147 31.7741 59.2205 31.5895C59.0288 31.4025 58.7802 31.3089 58.4748 31.3089C58.2641 31.3089 58.0688 31.3646 57.8889 31.4759C57.7113 31.5871 57.5681 31.741 57.4592 31.9375C57.3503 32.1316 57.2958 32.3565 57.2958 32.6122V36H56.3441ZM67.4263 36.1136C66.8937 36.1136 66.4356 35.9976 66.052 35.7656C65.6685 35.5312 65.3726 35.2045 65.1643 34.7855C64.9583 34.3641 64.8553 33.8729 64.8553 33.3118C64.8553 32.7531 64.9583 32.2607 65.1643 31.8345C65.3726 31.406 65.6626 31.0722 66.0343 30.8331C66.4083 30.594 66.8451 30.4744 67.3447 30.4744C67.6406 30.4744 67.9294 30.5241 68.2111 30.6236C68.4952 30.7206 68.7509 30.8769 68.9782 31.0923C69.2078 31.3054 69.3889 31.5859 69.5215 31.9339C69.6564 32.282 69.7239 32.7069 69.7239 33.2088V33.5746H65.4519V32.8146H68.7758C68.7758 32.5211 68.7166 32.2607 68.5982 32.0334C68.4822 31.8037 68.3165 31.6226 68.101 31.4901C67.888 31.3575 67.637 31.2912 67.3482 31.2912C67.031 31.2912 66.7563 31.3681 66.5243 31.522C66.2947 31.6759 66.1171 31.8771 65.9917 32.1257C65.8662 32.3743 65.8035 32.6418 65.8035 32.9283V33.4787C65.8035 33.867 65.8709 34.1972 66.0059 34.4695C66.1432 34.7393 66.3338 34.9453 66.5776 35.0874C66.8215 35.227 67.1055 35.2969 67.4299 35.2969C67.6406 35.2969 67.8323 35.2673 68.0052 35.2081C68.178 35.1465 68.326 35.0554 68.4491 34.9347C68.5745 34.8139 68.6716 34.6624 68.7402 34.4801L69.6493 34.6861C69.5665 34.9702 69.4221 35.2199 69.2161 35.4354C69.0125 35.6484 68.758 35.8153 68.4526 35.9361C68.1496 36.0545 67.8075 36.1136 67.4263 36.1136ZM70.9535 36V30.5455H71.8732V31.3906H71.9301C72.0295 31.1089 72.207 30.884 72.4627 30.7159C72.7208 30.5455 73.0108 30.4602 73.3328 30.4602C73.3967 30.4602 73.4736 30.4626 73.5636 30.4673C73.6559 30.4697 73.7281 30.4744 73.7802 30.4815V31.4155C73.7447 31.406 73.6737 31.3942 73.5671 31.38C73.463 31.3634 73.3564 31.3551 73.2475 31.3551C72.9895 31.3551 72.7587 31.4096 72.5551 31.5185C72.3538 31.625 72.1952 31.773 72.0792 31.9624C71.9632 32.1518 71.9052 32.3672 71.9052 32.6087V36H70.9535ZM78.7101 31.8239L77.8507 32.0156C77.8081 31.8902 77.7418 31.7706 77.6518 31.657C77.5642 31.541 77.4447 31.4451 77.2932 31.3693C77.1416 31.2936 76.9499 31.2557 76.7179 31.2557C76.4006 31.2557 76.1355 31.3279 75.9224 31.4723C75.7117 31.6167 75.6064 31.8002 75.6064 32.0227C75.6064 32.2169 75.6786 32.3719 75.823 32.4879C75.9674 32.6039 76.1947 32.6998 76.5048 32.7756L77.3429 32.9744C77.8377 33.0904 78.2058 33.2704 78.4473 33.5142C78.6911 33.7557 78.813 34.0682 78.813 34.4517C78.813 34.7713 78.7207 35.0566 78.5361 35.3075C78.3538 35.5561 78.0993 35.7526 77.7726 35.897C77.4459 36.0414 77.0659 36.1136 76.6327 36.1136C76.0479 36.1136 75.5685 35.9882 75.1944 35.7372C74.8204 35.4839 74.586 35.1205 74.4913 34.647L75.404 34.4695C75.475 34.7512 75.6123 34.9631 75.8159 35.1051C76.0219 35.2448 76.2906 35.3146 76.622 35.3146C76.9913 35.3146 77.2849 35.2365 77.5027 35.0803C77.7228 34.924 77.8341 34.7346 77.8365 34.5121C77.8341 34.3321 77.7678 34.1818 77.6376 34.0611C77.5098 33.938 77.3121 33.8456 77.0446 33.7841L76.1284 33.5746C75.6241 33.4586 75.2524 33.2751 75.0133 33.0241C74.7766 32.7708 74.6582 32.4536 74.6582 32.0724C74.6582 31.7576 74.7458 31.4806 74.921 31.2415C75.0986 31 75.3424 30.8118 75.6525 30.6768C75.9627 30.5419 76.3166 30.4744 76.7143 30.4744C77.2778 30.4744 77.7217 30.5975 78.046 30.8438C78.3703 31.09 78.5917 31.4167 78.7101 31.8239Z" fill="black" fill-opacity="0.7"/>
</svg>
