<svg width="107" height="39" viewBox="0 0 107 39" fill="none" xmlns="http://www.w3.org/2000/svg">
<path d="M53.968 3.86535L53.8801 3.7905C53.469 3.44013 52.8643 3.44013 52.4532 3.7905L51.1817 4.87404C50.7172 5.26986 50.1397 5.50907 49.5314 5.55761L47.8662 5.6905C47.3277 5.73347 46.9001 6.16105 46.8572 6.69951L46.7243 8.36475C46.6757 8.97308 46.4365 9.55058 46.0407 10.0151L44.9572 11.2865C44.6068 11.6977 44.6068 12.3023 44.9572 12.7135L46.0407 13.9849C46.4365 14.4494 46.6757 15.0269 46.7243 15.6352L46.8572 17.3005C46.9001 17.8389 47.3277 18.2665 47.8662 18.3095L49.5314 18.4424C50.1397 18.4909 50.7172 18.7301 51.1817 19.126L52.4532 20.2095C52.8643 20.5599 53.469 20.5599 53.8801 20.2095L55.1516 19.126C55.6161 18.7301 56.1936 18.4909 56.8019 18.4424L58.4671 18.3095C59.0056 18.2665 59.4332 17.8389 59.4762 17.3005L59.609 15.6352C59.6576 15.0269 59.8968 14.4494 60.2926 13.9849L61.3762 12.7135C61.7265 12.3023 61.7265 11.6977 61.3762 11.2865L61.3013 11.1987L62.5781 9.92185L62.7462 10.119C63.6699 11.2029 63.6699 12.7971 62.7462 13.881L61.6626 15.1525C61.5125 15.3286 61.4218 15.5477 61.4033 15.7784L61.2705 17.4437C61.1572 18.8633 60.0299 19.9905 58.6103 20.1038L56.9451 20.2367C56.7143 20.2551 56.4953 20.3458 56.3191 20.496L55.0476 21.5795C53.9637 22.5032 52.3696 22.5032 51.2857 21.5795L50.0142 20.496C49.838 20.3458 49.619 20.2551 49.3882 20.2367L47.723 20.1038C46.3034 19.9905 45.1761 18.8633 45.0629 17.4437L44.93 15.7784C44.9116 15.5477 44.8208 15.3286 44.6707 15.1525L43.5871 13.881C42.6635 12.7971 42.6635 11.2029 43.5871 10.119L44.6707 8.84754C44.8208 8.67136 44.9116 8.45231 44.93 8.22157L45.0629 6.55633C45.1761 5.13675 46.3034 4.00949 47.723 3.89621L49.3882 3.76332C49.619 3.7449 49.838 3.65417 50.0142 3.50403L51.2857 2.42049C52.3696 1.4968 53.9637 1.4968 55.0476 2.42049L55.2448 2.58852L53.968 3.86535Z" fill="#0055FF"/>
<path fill-rule="evenodd" clip-rule="evenodd" d="M57.5303 3.03027C58.8022 1.75832 60.8644 1.75832 62.1364 3.03027C63.4083 4.30222 63.4083 6.36445 62.1364 7.63639L55.8728 13.9H51.2667V9.29387L57.5303 3.03027ZM60.8636 4.30306C60.2946 3.73406 59.3721 3.73406 58.8031 4.30306L53.0667 10.0395V12.1H55.1272L60.8636 6.3636C61.4326 5.7946 61.4326 4.87207 60.8636 4.30306Z" fill="#0055FF"/>
<path d="M34.5047 36V28.7273H37.0331C37.5989 28.7273 38.0653 28.8303 38.4323 29.0362C38.8016 29.2422 39.0762 29.5215 39.2561 29.8743C39.4361 30.2247 39.526 30.6188 39.526 31.0568C39.526 31.4948 39.4361 31.8902 39.2561 32.2429C39.0762 32.5956 38.8028 32.8762 38.4358 33.0845C38.0689 33.2905 37.6025 33.3935 37.0367 33.3935H35.2647V32.5376H36.9728C37.3468 32.5376 37.6487 32.4725 37.8783 32.3423C38.1079 32.2121 38.2748 32.0357 38.379 31.8132C38.4855 31.5907 38.5388 31.3385 38.5388 31.0568C38.5388 30.7727 38.4855 30.5206 38.379 30.3004C38.2748 30.0779 38.1068 29.9039 37.8748 29.7784C37.6427 29.6506 37.3373 29.5866 36.9586 29.5866H35.4955V36H34.5047ZM40.7725 36V30.5455H41.6922V31.3906H41.749C41.8485 31.1089 42.026 30.884 42.2817 30.7159C42.5398 30.5455 42.8298 30.4602 43.1517 30.4602C43.2157 30.4602 43.2926 30.4626 43.3826 30.4673C43.4749 30.4697 43.5471 30.4744 43.5992 30.4815V31.4155C43.5637 31.406 43.4927 31.3942 43.3861 31.38C43.282 31.3634 43.1754 31.3551 43.0665 31.3551C42.8085 31.3551 42.5776 31.4096 42.374 31.5185C42.1728 31.625 42.0142 31.773 41.8982 31.9624C41.7822 32.1518 41.7242 32.3672 41.7242 32.6087V36H40.7725ZM46.6345 36.1136C46.1326 36.1136 45.6935 35.9964 45.317 35.7621C44.9406 35.5253 44.6482 35.1963 44.4399 34.7749C44.2316 34.3535 44.1274 33.8622 44.1274 33.3011C44.1274 32.733 44.2316 32.237 44.4399 31.8132C44.6482 31.3894 44.9406 31.0604 45.317 30.826C45.6935 30.5916 46.1326 30.4744 46.6345 30.4744C47.1364 30.4744 47.5756 30.5916 47.952 30.826C48.3284 31.0604 48.6208 31.3894 48.8291 31.8132C49.0375 32.237 49.1416 32.733 49.1416 33.3011C49.1416 33.8622 49.0375 34.3535 48.8291 34.7749C48.6208 35.1963 48.3284 35.5253 47.952 35.7621C47.5756 35.9964 47.1364 36.1136 46.6345 36.1136ZM46.6345 35.2898C46.9896 35.2898 47.2808 35.1986 47.5081 35.0163C47.7377 34.8317 47.9082 34.589 48.0195 34.2884C48.1307 33.9853 48.1864 33.6551 48.1864 33.2976C48.1864 32.9425 48.1307 32.6134 48.0195 32.3104C47.9082 32.005 47.7377 31.7599 47.5081 31.5753C47.2808 31.3883 46.9896 31.2947 46.6345 31.2947C46.2818 31.2947 45.9906 31.3883 45.7609 31.5753C45.5313 31.7599 45.3608 32.005 45.2496 32.3104C45.1383 32.6134 45.0827 32.9425 45.0827 33.2976C45.0827 33.6551 45.1383 33.9853 45.2496 34.2884C45.3608 34.589 45.5313 34.8317 45.7609 35.0163C45.9906 35.1986 46.2818 35.2898 46.6345 35.2898ZM50.3721 30.5455H51.3238V36.3764C51.3238 36.7268 51.2622 37.0263 51.1391 37.2749C51.016 37.5234 50.8326 37.714 50.5887 37.8466C50.3449 37.9792 50.0407 38.0455 49.6761 38.0455C49.6453 38.0455 49.6145 38.0455 49.5837 38.0455C49.5506 38.0455 49.5174 38.0455 49.4843 38.0455V37.1967C49.5151 37.1967 49.5435 37.1967 49.5695 37.1967C49.5932 37.1967 49.6192 37.1967 49.6477 37.1967C49.901 37.1967 50.0844 37.1257 50.1981 36.9837C50.3141 36.8416 50.3721 36.638 50.3721 36.3729V30.5455ZM50.8408 29.6719C50.668 29.6719 50.5189 29.6127 50.3934 29.4943C50.2703 29.3759 50.2087 29.2339 50.2087 29.0682C50.2087 28.9048 50.2703 28.764 50.3934 28.6456C50.5189 28.5272 50.668 28.468 50.8408 28.468C51.016 28.468 51.1652 28.5272 51.2883 28.6456C51.4138 28.764 51.4765 28.9048 51.4765 29.0682C51.4765 29.2339 51.4138 29.3759 51.2883 29.4943C51.1652 29.6127 51.016 29.6719 50.8408 29.6719ZM55.1262 36.1136C54.5935 36.1136 54.1354 35.9976 53.7519 35.7656C53.3684 35.5312 53.0724 35.2045 52.8641 34.7855C52.6581 34.3641 52.5552 33.8729 52.5552 33.3118C52.5552 32.7531 52.6581 32.2607 52.8641 31.8345C53.0724 31.406 53.3624 31.0722 53.7341 30.8331C54.1082 30.594 54.545 30.4744 55.0445 30.4744C55.3404 30.4744 55.6293 30.5241 55.911 30.6236C56.1951 30.7206 56.4507 30.8769 56.678 31.0923C56.9077 31.3054 57.0888 31.5859 57.2213 31.9339C57.3563 32.282 57.4238 32.7069 57.4238 33.2088V33.5746H53.1517V32.8146H56.4756C56.4756 32.5211 56.4164 32.2607 56.298 32.0334C56.182 31.8037 56.0163 31.6226 55.8009 31.4901C55.5878 31.3575 55.3369 31.2912 55.048 31.2912C54.7308 31.2912 54.4562 31.3681 54.2242 31.522C53.9945 31.6759 53.817 31.8771 53.6915 32.1257C53.566 32.3743 53.5033 32.6418 53.5033 32.9283V33.4787C53.5033 33.867 53.5708 34.1972 53.7057 34.4695C53.843 34.7393 54.0336 34.9453 54.2775 35.0874C54.5213 35.227 54.8054 35.2969 55.1297 35.2969C55.3404 35.2969 55.5322 35.2673 55.705 35.2081C55.8778 35.1465 56.0258 35.0554 56.1489 34.9347C56.2744 34.8139 56.3714 34.6624 56.4401 34.4801L57.3492 34.6861C57.2663 34.9702 57.1219 35.2199 56.9159 35.4354C56.7123 35.6484 56.4578 35.8153 56.1525 35.9361C55.8494 36.0545 55.5073 36.1136 55.1262 36.1136ZM60.9119 36.1136C60.3934 36.1136 59.946 35.9929 59.5695 35.7514C59.1955 35.5099 58.9078 35.1773 58.7066 34.7536C58.5054 34.3298 58.4048 33.8456 58.4048 33.3011C58.4048 32.7448 58.5077 32.2547 58.7137 31.831C58.922 31.4072 59.2121 31.0758 59.5837 30.8366C59.9578 30.5952 60.3958 30.4744 60.8977 30.4744C61.2978 30.4744 61.6552 30.5478 61.9701 30.6946C62.2873 30.8414 62.5454 31.0473 62.7442 31.3125C62.9431 31.5777 63.0639 31.8878 63.1065 32.2429H62.169C62.1098 31.9896 61.9737 31.7694 61.7606 31.5824C61.5499 31.393 61.2682 31.2983 60.9154 31.2983C60.6029 31.2983 60.3295 31.38 60.0951 31.5433C59.8631 31.7043 59.682 31.9328 59.5518 32.2287C59.4239 32.5246 59.36 32.8726 59.36 33.2727C59.36 33.6823 59.4239 34.0374 59.5518 34.3381C59.6796 34.6387 59.8595 34.8719 60.0916 35.0376C60.3259 35.2034 60.6005 35.2862 60.9154 35.2862C61.1261 35.2862 61.3167 35.2483 61.4871 35.1726C61.6576 35.0968 61.802 34.9891 61.9204 34.8494C62.0388 34.7074 62.1216 34.5381 62.169 34.3416H63.1065C63.0615 34.6778 62.9443 34.9796 62.7549 35.2472C62.5679 35.5147 62.3181 35.7266 62.0056 35.8828C61.6931 36.0367 61.3285 36.1136 60.9119 36.1136ZM66.749 30.5455V31.3267H63.8478V30.5455H66.749ZM64.6574 29.2386H65.6091V34.4197C65.6091 34.6399 65.6411 34.8056 65.705 34.9169C65.7713 35.0258 65.8565 35.0992 65.9607 35.1371C66.0649 35.175 66.1773 35.1939 66.298 35.1939C66.3856 35.1939 66.4602 35.1892 66.5218 35.1797C66.5833 35.1679 66.6319 35.1584 66.6674 35.1513L66.8485 35.9645C66.7893 35.9858 66.7052 36.0083 66.5963 36.032C66.4898 36.058 66.3549 36.071 66.1915 36.071C65.9335 36.0734 65.6873 36.0237 65.4529 35.9219C65.2185 35.8177 65.0267 35.6591 64.8776 35.446C64.7308 35.233 64.6574 34.9643 64.6574 34.6399V29.2386ZM71.8494 31.8239L70.99 32.0156C70.9474 31.8902 70.8811 31.7706 70.7911 31.657C70.7035 31.541 70.584 31.4451 70.4325 31.3693C70.2809 31.2936 70.0892 31.2557 69.8572 31.2557C69.5399 31.2557 69.2748 31.3279 69.0617 31.4723C68.851 31.6167 68.7457 31.8002 68.7457 32.0227C68.7457 32.2169 68.8179 32.3719 68.9623 32.4879C69.1067 32.6039 69.334 32.6998 69.6441 32.7756L70.4822 32.9744C70.977 33.0904 71.3451 33.2704 71.5866 33.5142C71.8304 33.7557 71.9523 34.0682 71.9523 34.4517C71.9523 34.7713 71.86 35.0566 71.6754 35.3075C71.4931 35.5561 71.2386 35.7526 70.9119 35.897C70.5852 36.0414 70.2052 36.1136 69.7719 36.1136C69.1872 36.1136 68.7078 35.9882 68.3337 35.7372C67.9597 35.4839 67.7253 35.1205 67.6306 34.647L68.5433 34.4695C68.6143 34.7512 68.7516 34.9631 68.9552 35.1051C69.1612 35.2448 69.4299 35.3146 69.7613 35.3146C70.1306 35.3146 70.4242 35.2365 70.642 35.0803C70.8621 34.924 70.9734 34.7346 70.9758 34.5121C70.9734 34.3321 70.9071 34.1818 70.7769 34.0611C70.6491 33.938 70.4514 33.8456 70.1839 33.7841L69.2677 33.5746C68.7634 33.4586 68.3917 33.2751 68.1526 33.0241C67.9159 32.7708 67.7975 32.4536 67.7975 32.0724C67.7975 31.7576 67.8851 31.4806 68.0603 31.2415C68.2379 31 68.4817 30.8118 68.7918 30.6768C69.102 30.5419 69.4559 30.4744 69.8536 30.4744C70.4171 30.4744 70.861 30.5975 71.1853 30.8438C71.5096 31.09 71.731 31.4167 71.8494 31.8239Z" fill="#0055FF"/>
</svg>
